# xmcd
#
# Track frame offsets:
#	150
#	15160
#	29600
#	41091
#	53830
#	66088
#	76602
#	88160
#	98551
#	110206
#	121985
#	137427
#	151238
#	169258
#	182202
#	195506
#	210948
#	223705
#	236521
#	252982
#
# Disc length: 3557 seconds
#
# Revision: 1
# Processed by: cddbd v1.5.2PL0 Copyright (c) Steve Scherf et al.
# Submitted via: audiograbber 1.83.01
#
DISCID=080de314
DTITLE=The Country Dance Kings - 101 Great Country Line - Vol. 2
DYEAR=2011
DGENRE=Country
TTITLE0=Oh Girl (You Know Where to Find Me)
TTITLE1=Bubba Shot the Jukebox
TTITLE2=What You Gonna Do With a Cowboy
TTITLE3=My Next Broken Heart
TTITLE4=What Part of No
TTITLE5=One More Payment
TTITLE6=I Want You Bad (And Ain't That Good)
TTITLE7=Against the Grain
TTITLE8=Boom! It Was Over
TTITLE9=The Whiskey Ain't Working
TTITLE10=Achy Breaky Heart
TTITLE11=Boot Scootin' Boogie
TTITLE12=All My Rowdy Friends (Have Settled Down)
TTITLE13=Cadillac Ranch
TTITLE14=Super Love
TTITLE15=One Step Forward
TTITLE16=Dumas Walker
TTITLE17=Love's Got a Hold on You
TTITLE18=I Feel Lucky
TTITLE19=Honky Tonk Blues
EXTD=
EXTT0=
EXTT1=
EXTT2=
EXTT3=
EXTT4=
EXTT5=
EXTT6=
EXTT7=
EXTT8=
EXTT9=
EXTT10=
EXTT11=
EXTT12=
EXTT13=
EXTT14=
EXTT15=
EXTT16=
EXTT17=
EXTT18=
EXTT19=
PLAYORDER=
